# xmcd CD database file
#
# Track frame offsets:
#	150
#	14841
#	29879
#	42286
#	57181
#	72276
#	84845
#	99234
#	113474
#	124612
#	137968
#	163484
#
# Disc length: 2356 seconds
#
# Revision: 0
# Processed by: cddbd v1.5.1PL2 Copyright (c) Steve Scherf et al.
# Submitted via: CDex 1.50
#
DISCID=a409320c
DTITLE=Norm Heinz - Stories Of Yesteryear
DYEAR=2005
DGENRE=Country
TTITLE0=Warragai Park
TTITLE1=To Be Right Here With You
TTITLE2=Legend In My Eyes
TTITLE3=The Old Bloke And His Siamese Cat
TTITLE4=Bushmen Of Yesteryear
TTITLE5=You've Helped Me To Be What I Am
TTITLE6=The Blacksmith In The Song
TTITLE7=Memories Of My Old Mate Fred
TTITLE8=Happy Anniversary
TTITLE9=Just The Way I Feel
TTITLE10=Johnnie
TTITLE11=The Traveller's Prayer
EXTD=YEAR: 2005
EXTT0=
EXTT1=
EXTT2=
EXTT3=
EXTT4=
EXTT5=
EXTT6=
EXTT7=
EXTT8=
EXTT9=
EXTT10=
EXTT11=
PLAYORDER=
